<?xml version="1.0" encoding="UTF-8" standalone="no"?>
<svg
   xmlns:dc="http://purl.org/dc/elements/1.1/"
   xmlns:cc="http://creativecommons.org/ns#"
   xmlns:rdf="http://www.w3.org/1999/02/22-rdf-syntax-ns#"
   xmlns:svg="http://www.w3.org/2000/svg"
   xmlns="http://www.w3.org/2000/svg"
   xmlns:sodipodi="http://sodipodi.sourceforge.net/DTD/sodipodi-0.dtd"
   xmlns:inkscape="http://www.inkscape.org/namespaces/inkscape"
   viewBox="0 0 10691.602 7400.5171"
   height="7400.5171"
   width="10691.602"
   xml:space="preserve"
   version="1.1"
   id="svg2"
   sodipodi:docname="cock-red.svg"
   inkscape:version="0.92.2 (5c3e80d, 2017-08-06)"><sodipodi:namedview
     pagecolor="#ffffff"
     bordercolor="#666666"
     borderopacity="1"
     objecttolerance="10"
     gridtolerance="10"
     guidetolerance="10"
     inkscape:pageopacity="0"
     inkscape:pageshadow="2"
     inkscape:window-width="1920"
     inkscape:window-height="1018"
     id="namedview36"
     showgrid="false"
     fit-margin-top="0"
     fit-margin-left="0"
     fit-margin-right="0"
     fit-margin-bottom="0"
     inkscape:pagecheckerboard="true"
     inkscape:zoom="0.059377856"
     inkscape:cx="4548.0089"
     inkscape:cy="3876.752"
     inkscape:window-x="-8"
     inkscape:window-y="-8"
     inkscape:window-maximized="1"
     inkscape:current-layer="svg2" /><metadata
     id="metadata8"><rdf:RDF><cc:Work
         rdf:about=""><dc:format>image/svg+xml</dc:format><dc:type
           rdf:resource="http://purl.org/dc/dcmitype/StillImage" /><dc:title></dc:title></cc:Work></rdf:RDF></metadata><defs
     id="defs6"><clipPath
       id="clipPath18"
       clipPathUnits="userSpaceOnUse"><path
         id="path20"
         d="M 0,0 H 14501 V 14669.8 H 0 Z"
         inkscape:connector-curvature="0" /></clipPath></defs><path
     id="path26"
     style="fill:#9c1006;fill-opacity:1;fill-rule:nonzero;stroke:none;stroke-width:1.18362248"
     d="m 6332.4159,7400.5172 c 0,0 223.7993,-325.544 600.1793,-528.985 0,0 1312.282,-905.365 1424.135,-1230.873 0,0 661.29,-152.592 844.396,-498.47 0,0 1830.9458,-162.76 1434.1948,-1312.259 0,0 -203.346,-1230.8728 -1047.7418,-976.5596 0,0 -701.888,264.4804 -823.92,518.7936 0,0 -447.646,813.7996 -823.967,-61.0276 0,0 -762.951,-661.2189 -1190.203,-406.9058 0,0 -661.2191,569.6657 -630.6935,1251.2311 l -203.441,376.3801 -10.1792,20.3464 -651.0515,40.693 c 0,0 -50.8603,-249.2354 -335.699,-345.8782 0,0 -279.7374,-116.9892 -86.4518,-401.8043 0,0 91.5413,-228.8889 457.766,-122.067 0,0 66.1053,361.1232 -30.5256,483.1902 0,0 1047.7781,-325.5317 1073.2023,-1230.8727 0,0 -223.7875,-467.9452 -478.1006,-615.4364 0,0 147.4912,-10.1791 228.8771,-147.5148 0,0 116.9774,-61.0276 320.4298,111.8996 0,0 178.017,-615.4363 -142.413,-1012.1629 0,0 15.2569,-55.9498 132.246,66.1172 0,0 -249.2353,-1378.3521 -1302.0912,-1124.11 0,0 57.678,-74.0948 102.5964,-88.8901 4.9831,-1.657 9.8123,-2.6039 14.3929,-2.6039 45.7707,0 -1037.599,-294.9588 -1490.2754,157.6585 0,0 -239.0563,-137.3002 -127.1684,-320.4066 0,0 -625.6037,208.5543 -712.0673,1179.9888 0,0 -778.2081,371.2905 -996.9179,625.6155 0,0 -605.2572,498.4471 -981.6492,478.1006 0,0 203.4529,284.8388 493.3694,244.1458 0,0 -595.0899,905.3529 -1174.9347,956.225 0,0 483.202,213.6202 569.6657,213.6202 0,0 -294.9943,595.1017 -437.4077,1103.7279 0,0 -152.6045,386.5474 -350.9678,473.0114 0,0 254.325,50.872 498.4708,-127.157 0,0 -376.392,808.71 40.6811,1332.605 0,0 55.9498,-249.223 223.7994,-244.134 0,0 86.4636,859.571 783.274,1119.021 0,0 1748.1394,-607.163 4786.1906,45.747"
     inkscape:connector-curvature="0" /><path
     id="path28"
     style="fill:#ffffff;fill-opacity:1;fill-rule:nonzero;stroke:none;stroke-width:1.18362248"
     d="m 3125.0948,1177.7517 c 0,0 -61.0394,-544.2296 320.4185,-859.594 0,0 10.1673,152.6045 172.9391,279.761 0,0 366.2128,-457.7778 1225.7831,-351.0151 0,0 -172.9272,91.6124 -172.9272,279.8084 0,0 1012.1629,-503.513 1439.427,437.4195 0,0 -376.4038,-142.4253 -493.3813,76.2963 0,0 706.9896,152.5808 706.9896,971.47 0,0 -198.3515,-203.441 -488.268,127.1566 0,0 -295.0179,335.699 -579.8329,127.1684 0,0 -75.0062,-22.2521 -155.1138,-159.576 0,0 -492.0674,-980.3235 -801.0402,-1048.9854 0,0 -477.0827,-248.0636 -1174.9939,120.0903"
     inkscape:connector-curvature="0" /><path
     id="path30"
     style="fill:#ffffff;fill-opacity:1;fill-rule:nonzero;stroke:none;stroke-width:1.18362248"
     d="m 3954.1514,3115.614 c 0,0 183.0945,-584.8989 1129.164,-584.8989 0,0 635.771,22.2284 868.4593,315.9562 0,0 -213.6201,-362.3897 -370.0122,-381.446 0,0 240.3109,-76.3082 610.3231,503.513 0,0 64.8389,541.6493 -686.6194,961.2553 0,0 465.3767,-434.8629 122.0552,-762.9157 0,0 -714.7423,-659.8341 -1673.37,-51.4639"
     inkscape:connector-curvature="0" /><path
     id="path32"
     style="fill:#ffffff;fill-opacity:1;fill-rule:nonzero;stroke:none;stroke-width:1.18362248"
     d="m 4029.2522,3186.1579 c 0,0 1071.8767,-591.255 1571.5785,164.0264 0,0 -617.9575,-415.7948 -884.9709,49.5819 l -213.6083,-148.7576 c 0,0 267.0134,-183.1064 694.2419,-152.5927 0,0 -492.0674,-137.312 -812.4858,114.4563 l -354.7554,-26.7143"
     inkscape:connector-curvature="0" /><path
     id="path34"
     style="fill:#ffffff;fill-opacity:1;fill-rule:nonzero;stroke:none;stroke-width:1.18362248"
     d="m 3998.7384,3292.968 c 0,0 575.9981,160.2151 781.9602,350.944 0,0 373.8354,-453.9429 755.2814,38.1364 0,0 106.8101,-476.8224 -522.5812,-362.3779 0,0 -263.2021,61.0276 -267.0134,183.0946 0,0 -423.4054,-274.6478 -747.647,-209.7971"
     inkscape:connector-curvature="0" /><path
     id="path36"
     style="fill:#ffffff;fill-opacity:1;fill-rule:nonzero;stroke:none;stroke-width:1.18362248"
     d="m 4705.7043,3792.6697 c 0,0 -291.1948,453.9311 433.5728,686.6076 0,0 167.8377,385.2689 -274.6359,392.9039 0,0 -591.2668,110.621 -453.9429,-808.6868 l 41.9594,-190.7289 c 0,0 -205.9859,129.7013 -171.649,503.5248 0,0 45.7707,350.9322 -26.7025,408.1485 0,0 -560.7293,511.1594 -877.3483,-160.2033 0,0 -213.5965,-350.9322 415.7947,-1064.2541 0,0 175.4721,-175.4721 457.7542,-34.3251 0,0 367.4556,186.9177 455.1975,267.0134"
     inkscape:connector-curvature="0" /><path
     id="path38"
     style="fill:#ffffff;fill-opacity:1;fill-rule:nonzero;stroke:none;stroke-width:1.18362248"
     d="m 4857.0068,2076.133 c 0,0 -247.9453,-949.8097 -1022.2948,-907.8503 0,0 -869.7139,38.1363 -1411.3751,400.5261 0,0 -850.6222,770.5264 -1098.5792,755.2813 0,0 331.864,87.7183 537.8499,0 0,0 -762.9039,1029.9054 -1266.4169,1075.6761 0,0 370.0122,141.147 602.6887,3.8113 0,0 -389.0804,347.1328 -610.3349,1296.9425 0,0 -129.6777,301.3502 -202.1509,324.2302 0,0 556.918,-335.6877 610.3231,-560.7298 0,0 34.325,663.7278 -99.1876,804.8638 0,0 694.242,-476.8228 755.2814,-686.6199 0,0 -87.7301,820.1199 392.8916,1045.1859 0,0 -102.987,-743.847 209.7971,-999.4152 0,0 -15.2569,438.6742 469.1761,717.1332 0,0 -186.9176,-915.4728 324.2416,-1113.8361 0,0 22.8794,358.5666 152.5808,347.1209 0,0 -45.7707,-942.1872 564.5524,-1182.498 0,0 -45.7707,-183.0946 34.3369,-244.1222 0,0 -99.1876,80.0958 -99.1876,156.3921 0,0 125.8783,-434.8511 236.5115,-476.8105 0,0 -110.6332,-7.6344 -308.9847,156.3802 0,0 335.6754,-335.6754 553.1068,-381.446 l -217.4314,45.7706 c 0,0 -80.0958,-30.5137 137.3238,-122.0669 0,0 637.0257,-133.5127 1113.848,-102.987 0,0 -251.7684,-30.5257 -251.7684,-251.7565 0,0 -236.4877,38.1481 -335.6635,114.4326 0,0 -484.4566,141.147 -534.0386,-7.6226 0,0 -251.7683,-7.6343 -347.121,38.1482 0,0 -26.7025,-95.3763 301.3385,-152.5808 0,0 76.2963,-472.9992 -232.6884,-568.3637 0,0 80.1076,-125.8782 518.7818,217.4197 0,0 320.4066,373.8234 522.593,259.3908"
     inkscape:connector-curvature="0" /><path
     id="path40"
     style="fill:#ffffff;fill-opacity:1;fill-rule:nonzero;stroke:none;stroke-width:1.18362248"
     d="m 4528.954,2182.9431 c 0,0 95.3644,-64.8507 72.485,-114.4326 0,0 91.5532,106.7983 45.7589,110.6214 l -118.2439,3.8112"
     inkscape:connector-curvature="0" /><path
     id="path42"
     style="fill:#ffffff;fill-opacity:1;fill-rule:nonzero;stroke:none;stroke-width:1.18362248"
     d="m 4349.6825,1927.3754 -255.5796,-213.6202 c 0,0 91.5532,209.797 72.4732,316.5953 0,0 0,225.0658 175.472,183.1064 0,0 -160.2151,-106.8101 7.6344,-286.0815"
     inkscape:connector-curvature="0" /><path
     id="path44"
     style="fill:#ffffff;fill-opacity:1;fill-rule:nonzero;stroke:none;stroke-width:1.18362248"
     d="m 5932.7303,4843.9282 320.4658,-587.5152 381.5171,259.4146 c 0,0 -564.6354,167.8731 -701.9829,328.1006"
     inkscape:connector-curvature="0" /><path
     id="path46"
     style="fill:#ffffff;fill-opacity:1;fill-rule:nonzero;stroke:none;stroke-width:1.18362248"
     d="M 6329.4924,4134.3342 6825.4652,4454.8 c 0,0 801.171,-53.4169 984.301,-419.6652 0,0 244.158,-274.6833 350.968,-267.0489 0,0 -991.911,-1175.0531 -1403.954,-610.4297 0,0 -427.2878,343.3689 -427.2878,976.678"
     inkscape:connector-curvature="0" /><path
     id="path48"
     style="fill:#ffffff;fill-opacity:1;fill-rule:nonzero;stroke:none;stroke-width:1.18362248"
     d="m 7962.3592,4164.848 c 0,0 701.994,557.0127 572.269,1297.1202 0,0 465.519,-297.563 518.9,-373.871 0,0 -343.369,-1350.5369 -747.812,-1175.0412 0,0 -343.357,53.405 -343.357,251.792"
     inkscape:connector-curvature="0" /><path
     id="path50"
     style="fill:#ffffff;fill-opacity:1;fill-rule:nonzero;stroke:none;stroke-width:1.18362248"
     d="m 8595.7032,3798.5997 c 0,0 534.051,541.744 579.857,1197.9445 0,0 267.025,-83.943 564.706,-412.031 0,0 320.7618,-284.3535 456.2868,-297.1485 3.195,-0.284 6.154,-0.4379 8.995,-0.4379 129.843,0 -396.7498,297.5864 -442.4378,549.3784 0,0 801.0758,-221.2782 770.6568,-564.6353 0,0 -122.15,-1564.1808 -839.4248,-1266.6063 0,0 -564.588,144.9701 -709.464,412.019 0,0 -175.531,282.3295 -389.175,381.5171"
     inkscape:connector-curvature="0" /><path
     id="path52"
     style="fill:#ffffff;fill-opacity:1;fill-rule:nonzero;stroke:none;stroke-width:1.18362248"
     d="m 943.0749,4885.6382 c 0,0 -376.3801,447.611 -223.7993,864.684 0,0 61.0394,-81.386 549.331,-457.766 0,0 203.4411,-111.9 264.4805,-223.799 0,0 -81.3859,549.307 712.0791,935.878 0,0 -254.3131,-478.112 -20.3465,-915.544 0,0 345.8664,559.499 874.8509,447.599 0,0 -396.7502,-325.52 -162.7836,-925.6994 0,0 122.0789,264.4924 335.699,284.8274 0,0 -213.6201,111.899 -223.7993,213.632 0,0 522.7232,-157.174 907.9923,-38.918 0,0 -118.2557,-30.514 -202.1745,-15.257 0,0 671.3625,137.324 598.8774,709.499 l -6.0009,12.665 c 0,0 79.6933,118.682 -45.7707,140.721 0,0 -215.3246,49.155 -710.3866,-108.503 0,0 108.5146,269.57 1012.1748,217.005 0,0 462.0034,461.151 1436.03,-222.947 0,0 605.2577,27.981 1233.4057,-490.824 l 671.398,-541.6853 c 0,0 -160.203,-2.5447 -681.565,455.2213 0,0 -625.616,358.59 -851.936,300.096 0,0 -256.8701,-17.802 -178.029,-401.817 0,0 -17.8016,-170.406 272.103,-305.1848 0,0 559.51,-223.7875 752.784,-264.4804 0,0 -963.8475,155.1255 -1210.5381,465.3882 0,0 38.1481,-213.6199 897.7301,-434.8744 0,0 750.227,-86.4755 890.108,-289.9165 0,0 198.351,71.2185 322.975,244.1458 0,0 -134.791,-175.4721 -241.613,-162.7718 0,0 399.307,114.4563 322.963,930.7889 0,0 -811.243,462.856 -971.458,574.755 0,0 -645.962,366.213 -1360.5738,495.914 0,0 869.7378,-71.218 1492.8198,-457.766 0,0 658.674,-315.352 681.554,-356.033 0,0 -1411.434,1431.781 -2215.0668,1360.574 0,0 -1027.4198,-30.514 -1139.3313,-30.514 0,0 -813.7997,-178.029 -2609.2603,71.195 l -396.7266,-330.598 284.8388,345.867 c 0,0 -447.5987,81.374 -534.0623,167.849 0,0 -579.833,-269.582 -600.1795,-1347.862 0,0 -244.1458,15.269 -264.4923,432.318 0,0 -305.1734,-717.157 335.699,-1347.862"
     inkscape:connector-curvature="0" /><path
     id="path54"
     style="fill:#ffffff;fill-opacity:1;fill-rule:nonzero;stroke:none;stroke-width:1.18362248"
     d="m 4730.5367,5351.5602 c 0,0 198.3752,-297.575 1060.5968,-183.131 0,0 419.6534,221.279 22.8794,412.031 0,0 -1083.4762,495.962 -1228.4581,61.04 0,0 175.5076,-274.684 892.7354,-404.409 0,0 -564.6352,0 -747.7535,114.469"
     inkscape:connector-curvature="0" /><path
     id="path56"
     style="fill:#9c1006;fill-opacity:1;fill-rule:nonzero;stroke:none;stroke-width:1.18362248"
     d="m 3730.9912,697.1536 c 0,0 167.8495,-495.9378 930.8717,-358.6376 0,0 -633.309,76.32 -930.8717,358.6376"
     inkscape:connector-curvature="0" /><path
     id="path58"
     style="fill:#9c1006;fill-opacity:1;fill-rule:nonzero;stroke:none;stroke-width:1.18362248"
     d="m 4882.8098,504.1758 c 0,0 704.4802,-218.4493 1058.3952,387.8258 0,0 -206.767,-310.7364 -1058.3952,-387.8258"
     inkscape:connector-curvature="0" /><path
     id="path60"
     style="fill:#9c1006;fill-opacity:1;fill-rule:nonzero;stroke:none;stroke-width:1.18362248"
     d="m 5691.9223,1231.2751 c 0,0 625.6747,381.4934 534.1333,694.3248 0,0 152.5806,-503.584 -534.1333,-694.3248"
     inkscape:connector-curvature="0" /><path
     id="path62"
     style="fill:#9c1006;fill-opacity:1;fill-rule:nonzero;stroke:none;stroke-width:1.18362248"
     d="m 1881.9006,2207.9412 c 0,0 907.9923,-839.3185 1518.4101,-930.8836 0,0 -824.0616,473.0703 -938.5061,579.904 0,0 -427.2995,373.8709 -579.904,350.9796"
     inkscape:connector-curvature="0" /><path
     id="path64"
     style="fill:#9c1006;fill-opacity:1;fill-rule:nonzero;stroke:none;stroke-width:1.18362248"
     d="m 2230.3472,2365.6353 c 0,0 -999.5455,1091.1105 -1190.3099,991.9111 0,0 465.4477,-320.4658 579.904,-511.2065 0,0 404.3846,-465.4478 610.4059,-480.7046"
     inkscape:connector-curvature="0" /><path
     id="path66"
     style="fill:#9c1006;fill-opacity:1;fill-rule:nonzero;stroke:none;stroke-width:1.18362248"
     d="m 1167.2412,3581.3576 c 0,0 -312.8433,648.5659 -282.3176,747.7653 0,0 -114.4445,-213.6557 282.3176,-747.7653"
     inkscape:connector-curvature="0" /><path
     id="path68"
     style="fill:#9c1006;fill-opacity:1;fill-rule:nonzero;stroke:none;stroke-width:1.18362248"
     d="m 3621.6126,4026.4707 c 0,0 -167.8613,526.4753 91.5651,640.9197 0,0 129.7132,160.2388 297.5745,-68.6619 0,0 -7.6225,328.0997 -328.0883,152.6044 0,0 -305.2089,-175.4957 -61.0513,-724.8622"
     inkscape:connector-curvature="0" /><path
     id="path70"
     style="fill:#9c1006;fill-opacity:1;fill-rule:nonzero;stroke:none;stroke-width:1.18362248"
     d="m 4481.2658,4283.3404 c 0,0 190.7408,587.5268 549.3784,389.1396 0,0 15.2451,-30.5256 15.2451,-122.0907 0,0 106.8337,267.0608 -190.7526,213.6557 0,0 -259.4264,30.5138 -373.8709,-480.7046"
     inkscape:connector-curvature="0" /></svg>