<?xml version="1.0" encoding="utf-8"?>
<!-- Generator: Adobe Illustrator 23.0.1, SVG Export Plug-In . SVG Version: 6.00 Build 0)  -->
<svg version="1.1" id="Livello_1" xmlns="http://www.w3.org/2000/svg" xmlns:xlink="http://www.w3.org/1999/xlink" x="0px" y="0px"
	 viewBox="0 0 24 24" style="enable-background:new 0 0 24 24;" xml:space="preserve">
<style type="text/css">
	.st0{fill:none;}
	.st1{fill:#9A9DAB;}
</style>
<path class="st0" d="M0,0h24v24H0V0z"/>
<path class="st1" d="M20,19.6V8l-6-6H6C4.9,2,4,2.9,4,4l0,16c0,1.1,0.9,2,2,2h12c0.5,0,0.9-0.1,1.2-0.4l-4.4-4.4
	C14,17.7,13,18,12,18c-2.8,0-5-2.2-5-5s2.2-5,5-5s5,2.2,5,5c0,1-0.3,2-0.8,2.8L20,19.6z M9,13c0,1.7,1.3,3,3,3s3-1.3,3-3s-1.3-3-3-3
	S9,11.3,9,13z"/>
</svg>
