<?xml version="1.0" encoding="utf-8"?>
<!-- Generator: Adobe Illustrator 23.0.1, SVG Export Plug-In . SVG Version: 6.00 Build 0)  -->
<svg version="1.1" id="Livello_1" xmlns="http://www.w3.org/2000/svg" xmlns:xlink="http://www.w3.org/1999/xlink" x="0px" y="0px"
	 viewBox="0 0 24 24" style="enable-background:new 0 0 24 24;" xml:space="preserve">
<style type="text/css">
	.st0{fill:#9A9DAB;}
	.st1{fill:none;}
</style>
<path class="st0" d="M22.7,22.7l-20-20L2,2L1.3,1.3L0,2.5l4.4,4.4l2.2,4.7L5.2,14C5.1,14.3,5,14.6,5,15c0,1.1,0.9,2,2,2h7.5l1.4,1.4
	c-0.5,0.4-0.8,1-0.8,1.6c0,1.1,0.9,2,2,2c0.7,0,1.3-0.3,1.6-0.8l2.8,2.8L22.7,22.7z M7.4,15c-0.1,0-0.2-0.1-0.2-0.2l0-0.1L8.1,13
	h2.4l2,2H7.4z M15.6,13c0.7,0,1.4-0.4,1.7-1l3.6-6.5C21,5.3,21,5.2,21,5c0-0.6-0.5-1-1-1H6.5L15.6,13z M7,18c-1.1,0-2,0.9-2,2
	s0.9,2,2,2s2-0.9,2-2S8.1,18,7,18z"/>
<path class="st1" d="M0,0h24v24H0V0z"/>
</svg>
