<?xml version="1.0" encoding="utf-8"?>
<!-- Generator: Adobe Illustrator 23.0.2, SVG Export Plug-In . SVG Version: 6.00 Build 0)  -->
<svg version="1.1" id="Livello_2" xmlns="http://www.w3.org/2000/svg" xmlns:xlink="http://www.w3.org/1999/xlink" x="0px" y="0px"
	 viewBox="0 0 256 256" style="enable-background:new 0 0 256 256;" xml:space="preserve">
<style type="text/css">
	.st0{fill:#FFFFFF;}
</style>
<g>
	<g>
		<g>
			<path class="st0" d="M203.2,94.2h-17.1v-39c0-27.7-23-50.2-51.3-50.2S83.5,27.5,83.5,55.2v39H66.5C50.8,94.2,38,107,38,122.7
				v96.8c0,15.7,12.8,28.5,28.5,28.5h136.7c15.7,0,28.5-12.8,28.5-28.5v-96.8C231.6,107,218.9,94.2,203.2,94.2z M102.5,55.2
				C102.5,38,117,24,134.8,24s32.3,14,32.3,31.2v39h-64.5L102.5,55.2L102.5,55.2z M212.7,219.5c0,5.2-4.3,9.5-9.5,9.5H66.5
				c-5.2,0-9.5-4.3-9.5-9.5v-96.8c0-5.2,4.3-9.5,9.5-9.5h136.7c5.2,0,9.5,4.3,9.5,9.5V219.5z"/>
		</g>
	</g>
	<g>
		<g>
			<path class="st0" d="M134.8,140.7c-9.7,0-17.6,7.9-17.6,17.6c0,6.2,3.2,11.6,8.1,14.8v20.8c0,5.2,4.2,9.5,9.5,9.5
				c5.2,0,9.5-4.3,9.5-9.5v-20.8c4.9-3.1,8.1-8.6,8.1-14.8C152.4,148.6,144.5,140.7,134.8,140.7z"/>
		</g>
	</g>
</g>
</svg>
