<?xml version="1.0" encoding="utf-8"?>
<!-- Generator: Adobe Illustrator 23.0.2, SVG Export Plug-In . SVG Version: 6.00 Build 0)  -->
<svg version="1.1" id="Livello_1" xmlns="http://www.w3.org/2000/svg" xmlns:xlink="http://www.w3.org/1999/xlink" x="0px" y="0px"
	 viewBox="0 0 256 256" style="enable-background:new 0 0 256 256;" xml:space="preserve">
<style type="text/css">
	.st0{fill-rule:evenodd;clip-rule:evenodd;fill:#FFFFFF;}
</style>
<path class="st0" d="M238.7,256h-35.5H52.8H17.3c-8.7,0-15.8-7.1-15.8-15.8v-47.4c0-29.5,26.1-54.9,64.3-68.5
	c-0.6-3.5-1.1-7-1.1-10.6V66.2C64.7,31.3,93.1,3,128,3c34.9,0,63.3,28.3,63.3,63.2v47.4c0,3.6-0.5,7.1-1.1,10.6
	c38.3,13.6,64.3,39,64.3,68.5v47.4C254.5,248.9,247.4,256,238.7,256z M159.6,66.2c0-17.5-14.2-31.6-31.6-31.6
	c-17.5,0-31.6,14.2-31.6,31.6v47.4c0,17.5,14.2,31.6,31.6,31.6c17.5,0,31.6-14.2,31.6-31.6V66.2z M222.9,192.8
	c0-17.1-18.2-31.9-45.3-40.3c-11.6,14.8-29.4,24.4-49.6,24.4c-20.2,0-38-9.7-49.6-24.4c-27.1,8.4-45.3,23.2-45.3,40.3v31.6h15.8h8.8
	h117.7h15.8h7h24.6V192.8z"/>
</svg>
