<?xml version="1.0" encoding="utf-8"?>
<!-- Generator: Adobe Illustrator 23.0.3, SVG Export Plug-In . SVG Version: 6.00 Build 0)  -->
<svg version="1.1" id="Livello_1" xmlns="http://www.w3.org/2000/svg" xmlns:xlink="http://www.w3.org/1999/xlink" x="0px" y="0px"
	 viewBox="0 0 24 24" style="enable-background:new 0 0 24 24;" xml:space="preserve">
<style type="text/css">
	.st0{fill:#FDFF43;}
</style>
<path class="st0" d="M13,2L13,2v2c4.4,0.5,7.5,4.5,7,8.9c-0.5,3.6-3.3,6.5-7,7v2c5.5-0.6,9.5-5.4,9-10.9C21.5,6.2,17.7,2.5,13,2
	 M11,2.1C9.1,2.2,7.2,3,5.7,4.3l1.4,1.5C8.2,4.8,9.6,4.3,11,4.1V2.1 M4.3,5.7C3,7.2,2.2,9,2,11h2c0.2-1.4,0.8-2.8,1.6-3.9L4.3,5.7
	 M2.1,13c0.2,2,1,3.8,2.2,5.3l1.4-1.4c-0.9-1.1-1.5-2.5-1.6-3.9H2.1 M7.1,18.4l-1.4,1.4C7.2,21,9,21.8,11,22v-2
	C9.6,19.8,8.2,19.2,7.1,18.4 M12.5,7v5.2l4.5,2.7l-0.8,1.2L11,13V7H12.5z"/>
</svg>
