<?xml version="1.0" encoding="UTF-8" standalone="no"?>
<svg
   xmlns:dc="http://purl.org/dc/elements/1.1/"
   xmlns:cc="http://creativecommons.org/ns#"
   xmlns:rdf="http://www.w3.org/1999/02/22-rdf-syntax-ns#"
   xmlns:svg="http://www.w3.org/2000/svg"
   xmlns="http://www.w3.org/2000/svg"
   xmlns:sodipodi="http://sodipodi.sourceforge.net/DTD/sodipodi-0.dtd"
   xmlns:inkscape="http://www.inkscape.org/namespaces/inkscape"
   width="24"
   height="24"
   viewBox="0 0 24 24"
   version="1.1"
   id="svg6"
   sodipodi:docname="baseline-assessment-24px.svg"
   inkscape:version="0.92.4 (unknown)">
  <metadata
     id="metadata12">
    <rdf:RDF>
      <cc:Work
         rdf:about="">
        <dc:format>image/svg+xml</dc:format>
        <dc:type
           rdf:resource="http://purl.org/dc/dcmitype/StillImage" />
      </cc:Work>
    </rdf:RDF>
  </metadata>
  <defs
     id="defs10" />
  <sodipodi:namedview
     pagecolor="#ffffff"
     bordercolor="#666666"
     borderopacity="1"
     objecttolerance="10"
     gridtolerance="10"
     guidetolerance="10"
     inkscape:pageopacity="0"
     inkscape:pageshadow="2"
     inkscape:window-width="1920"
     inkscape:window-height="1030"
     id="namedview8"
     showgrid="false"
     inkscape:zoom="19.666667"
     inkscape:cx="20.725049"
     inkscape:cy="9.4188164"
     inkscape:window-x="0"
     inkscape:window-y="1102"
     inkscape:window-maximized="1"
     inkscape:current-layer="svg6" />
  <path
     d="M 5 3 C 3.9 3 3 3.9 3 5 L 3 19 C 3 20.1 3.9 21 5 21 L 19 21 C 20.1 21 21 20.1 21 19 L 21 5 C 21 3.9 20.1 3 19 3 L 5 3 z M 8.8417969 5.0761719 L 15.541016 5.0761719 C 15.662685 5.0761719 15.761719 5.1751644 15.761719 5.296875 L 15.761719 6.2285156 L 17.976562 6.2304688 C 18.216687 6.2306448 18.411615 6.4220731 18.416016 6.6621094 C 18.418395 6.791361 18.459735 9.843271 17.115234 11.212891 C 16.724045 11.611395 16.25655 11.835389 15.724609 11.880859 C 15.521149 13.305258 14.454008 14.453725 13.072266 14.779297 L 13.072266 17.552734 L 14.189453 17.552734 C 14.261502 17.552734 14.327941 17.589347 14.369141 17.648438 L 15.330078 19.023438 C 15.358198 19.067012 15.380859 19.110743 15.380859 19.164062 C 15.380859 19.285782 15.281827 19.384766 15.160156 19.384766 C 15.159804 19.384722 9.2246094 19.384766 9.2246094 19.384766 C 9.142516 19.384766 9.0672349 19.338385 9.0292969 19.265625 C 8.9913069 19.192826 8.9959958 19.106392 9.0429688 19.039062 L 10.013672 17.648438 C 10.054874 17.589357 10.121299 17.552734 10.193359 17.552734 L 11.310547 17.552734 L 11.310547 14.779297 C 9.9287183 14.453769 8.8616628 13.305259 8.6582031 11.880859 C 8.126306 11.835382 7.6587666 11.611395 7.2675781 11.212891 C 5.9230738 9.8432672 5.9643769 6.791405 5.9667969 6.6621094 C 5.9712478 6.4220731 6.1661693 6.2306434 6.40625 6.2304688 L 8.6210938 6.2285156 L 8.6210938 5.296875 C 8.6210938 5.1751556 8.7201252 5.0761719 8.8417969 5.0761719 z M 8.6210938 7.109375 L 6.8554688 7.1113281 C 6.8987872 8.0876906 7.1288258 9.8164682 7.8964844 10.597656 C 8.1088025 10.813719 8.3475656 10.941525 8.6210938 10.988281 L 8.6210938 7.109375 z M 15.761719 7.109375 L 15.761719 10.988281 C 16.035468 10.941526 16.273835 10.812119 16.486328 10.595703 C 17.255486 9.8121802 17.486777 8.0866783 17.529297 7.1113281 L 15.761719 7.109375 z "
     fill="#9A9DAB"
     id="path2" />
  <path
     d="M0 0h24v24H0z"
     fill="none"
     id="path4" />
</svg>
