<svg xmlns="http://www.w3.org/2000/svg" viewBox="0 0 20.57 20.59"><defs><style>.cls-1{fill:#a8aab7;fill-rule:evenodd;}</style></defs><title>Risorsa 1</title><g id="Livello_2" data-name="Livello 2"><g id="Livello_1-2" data-name="Livello 1"><path class="cls-1" d="M18,20.59H2.57A2.58,2.58,0,0,1,0,18V2.57A2.57,2.57,0,0,1,2.57,0H5.14V1.29a1.29,1.29,0,0,0,2.57,0V0h5.14V1.29a1.29,1.29,0,0,0,2.57,0V0H18a2.57,2.57,0,0,1,2.57,2.57V18A2.58,2.58,0,0,1,18,20.59ZM18,7.72a1.29,1.29,0,0,0-1.29-1.29H3.86A1.29,1.29,0,0,0,2.57,7.72v9A1.28,1.28,0,0,0,3.86,18H16.71A1.28,1.28,0,0,0,18,16.73Zm-5.15,7.72h2.57V12.87H12.85Zm0-3.86h2.57V9H12.85ZM9,15.44h2.57V12.87H9Zm0-3.86h2.57V9H9ZM5.14,15.44H7.71V12.87H5.14Zm0-3.86H7.71V9H5.14Z"/></g></g></svg>