<?xml version="1.0" encoding="UTF-8" standalone="no"?>
<svg
   xmlns:dc="http://purl.org/dc/elements/1.1/"
   xmlns:cc="http://creativecommons.org/ns#"
   xmlns:rdf="http://www.w3.org/1999/02/22-rdf-syntax-ns#"
   xmlns:svg="http://www.w3.org/2000/svg"
   xmlns="http://www.w3.org/2000/svg"
   xml:space="preserve"
   width="24px"
   viewBox="0 0 24 24"
   version="1.1"
   id="Layer_1"
   height="24px"
   enable-background="new 0 0 24 24"><metadata
     id="metadata9"><rdf:RDF><cc:Work
         rdf:about=""><dc:format>image/svg+xml</dc:format><dc:type
           rdf:resource="http://purl.org/dc/dcmitype/StillImage" /><dc:title></dc:title></cc:Work></rdf:RDF></metadata><defs
     id="defs7" /><path
     style="fill:#02a502"
     id="path3"
     fill-rule="evenodd"
     d="M22.506,21v0.016L17,15.511V19c0,1.105-0.896,2-2,2h-1.5H3H2c-1.104,0-2-0.895-2-2  v-1l0,0V6l0,0V5c0-1.104,0.896-1.999,2-1.999h1l0,0h10.5l0,0H15c1.104,0,2,0.895,2,1.999v3.516l5.5-5.5V3.001  c0.828,0,1.5,0.671,1.5,1.499v15C24,20.327,23.331,20.996,22.506,21z"
     clip-rule="evenodd" /></svg>
